# xmcd CD database file
#
# Track frame offsets:
#	126775
#	141205
#	157064
#	172676
#	190304
#	207744
#	228919
#	242889
#	259219
#	270844
#	284014
#	300130
#
# Disc length: 4345 seconds
#
# Revision: 2
# Processed by: cddbd v1.5.2PL0 Copyright (c) Steve Scherf et al.
# Submitted via: CDex 1.50
#
DISCID=b60a5f0c
DTITLE=Highway 101 and Paulette Carlson - Reunited
DYEAR=1996
DGENRE=Country
TTITLE0=Where'd You Get Your Cheatin' From
TTITLE1=The Bed You Made For Me
TTITLE2=Holdin' On
TTITLE3=Hearts On The Run
TTITLE4=Setting Me Up
TTITLE5=She Don't Have The Heart To Love You
TTITLE6=Texas Girl
TTITLE7=All The Reasons Why
TTITLE8=Walkin', Talkin', Cryin', Barely Beatin' Broken Heart
TTITLE9=I've Got Your Number
TTITLE10=It Must Be Love
TTITLE11=Have You Ever Really Loved A Woman
EXTD=YEAR: 1996
EXTT0=
EXTT1=
EXTT2=
EXTT3=
EXTT4=
EXTT5=
EXTT6=
EXTT7=
EXTT8=
EXTT9=
EXTT10=
EXTT11=
PLAYORDER=
